<svg xmlns="http://www.w3.org/2000/svg" xmlns:xlink="http://www.w3.org/1999/xlink" width="177px" height="46px" viewBox="0 0 177 46"><title>Roamler Logo - H</title><desc>Created with Sketch.</desc><defs><path d="M42.8359971,11.9872681 L27.3556066,3.04027676 C25.9033324,2.20092549 24.1131222,2.20092549 22.6608479,3.04027676 L7.18045749,11.9872681 C5.73098056,12.8250027 4.83829879,14.3716488 4.83829879,16.0452547 L4.83829879,33.9510342 C4.83829879,35.6246401 5.73098056,37.1712862 7.18045749,38.0090207 L22.6608479,46.9560121 C24.1131222,47.7953634 25.9033324,47.7953634 27.3556066,46.9560121 L42.8359971,38.0090207 C44.285474,37.1712862 45.1781558,35.6246401 45.1781558,33.9510342 L45.1781558,16.0452547 C45.1781558,14.3716488 44.285474,12.8250027 42.8359971,11.9872681 Z" id="path-1"></path></defs><g id="Brand-Identity" stroke="none" stroke-width="1" fill="none" fill-rule="evenodd"><g id="example---web-copy-2" transform="translate(-77.000000, -20.000000)"><g id="Roamler-Logo---H" transform="translate(77.000000, 18.000000)"><g id="Roamler-Wordmark" transform="translate(58.198370, 10.576923)" fill="#222222" fill-rule="evenodd"><path d="M83.3395091,0 C83.7371596,0 84.059519,0.322871575 84.059519,0.721153846 L84.059519,22.3557692 C84.059519,22.7540515 83.7371596,23.0769231 83.3395091,23.0769231 L79.9881804,23.0769231 C79.5905299,23.0769231 79.2681705,22.7540515 79.2681705,22.3557692 L79.2681705,0.721153846 C79.2681705,0.322871575 79.5905299,0 79.9881804,0 L83.3395091,0 Z M3.8563422,6.05751919 C4.25399268,6.05751919 4.57635208,6.38039077 4.57635208,6.77867304 L4.57635208,8.48406834 C5.14891747,7.68545723 5.92169115,7.08137959 6.89467312,6.67183543 C7.86651755,6.26304969 8.98757148,6.05751919 10.2578312,6.05751919 C10.99168,6.05751919 11.7303376,6.21073943 12.473804,6.51717991 C12.8415081,6.66877068 13.016928,7.09020324 12.8656044,7.45850258 C12.8410103,7.51836104 12.8084816,7.57463041 12.768895,7.62579435 L10.7444843,10.2422574 C10.5883576,10.4441022 10.3372959,10.5481819 10.084411,10.5159295 L9.48204854,10.4436601 L9.48204854,10.4436601 L9.26614935,10.4232299 L9.26614935,10.4232299 L9.18284916,10.4191645 L9.18284916,10.4191645 C7.81058815,10.4191645 6.73560612,10.8031121 5.95790307,11.5710074 C5.18020001,12.3389027 4.79096931,13.4907457 4.79021094,15.0265363 L4.79021094,22.3557692 C4.79021094,22.7540515 4.46785154,23.0769231 4.07020106,23.0769231 L0.720009881,23.0769231 C0.322359404,23.0769231 0,22.7540515 0,22.3557692 L0,6.77867304 C0,6.38039077 0.322359404,6.05751919 0.720009881,6.05751919 L3.8563422,6.05751919 Z M109.347362,6.05751919 C109.745013,6.05751919 110.067372,6.38039077 110.067372,6.77867304 L110.067372,8.48406834 C110.639937,7.68545723 111.412711,7.08137959 112.385693,6.67183543 C113.357538,6.26304969 114.478591,6.05751919 115.748851,6.05751919 C116.4827,6.05751919 117.221358,6.21073943 117.964824,6.51717991 C118.332528,6.66877068 118.507948,7.09020324 118.356624,7.45850258 C118.33203,7.51836104 118.299502,7.57463041 118.259915,7.62579435 L116.235504,10.2422574 C116.079378,10.4441022 115.828316,10.5481819 115.575431,10.5159295 L114.973069,10.4436601 L114.973069,10.4436601 L114.757169,10.4232299 L114.757169,10.4232299 L114.673869,10.4191645 L114.673869,10.4191645 C113.301608,10.4191645 112.226626,10.8031121 111.448923,11.5710074 C110.67122,12.3389027 110.281989,13.4907457 110.281231,15.0265363 L110.281231,22.3557692 C110.281231,22.7540515 109.958872,23.0769231 109.561221,23.0769231 L106.21103,23.0769231 C105.813379,23.0769231 105.49102,22.7540515 105.49102,22.3557692 L105.49102,6.77867304 C105.49102,6.38039077 105.813379,6.05751919 106.21103,6.05751919 L109.347362,6.05751919 Z M21.0519213,6.05979207 C22.7923684,6.05903602 24.3485329,6.42250646 25.7204147,7.15020576 C27.0922965,7.87752585 28.1674682,8.88602834 28.9459296,10.1757132 C29.724391,11.4653981 30.1132425,12.9295185 30.1124864,14.5680744 C30.1124864,16.2070094 29.7236326,17.6711298 28.9459296,18.9604355 C28.1682265,20.2497411 27.0930549,21.2584332 25.7204147,21.9865118 C24.3485329,22.7134526 22.7923684,23.0769231 21.0519213,23.0769231 C19.3114742,23.0769231 17.7501908,22.7126942 16.368071,21.9842365 C14.9859513,21.2572956 13.9052815,20.2486035 13.1260617,18.9581602 C12.3468419,17.6677169 11.9578008,16.2035965 11.9589334,14.5657991 C11.9589334,12.9280017 12.3479795,11.4638813 13.1260617,10.173438 C13.9041439,8.88299468 14.9848137,7.87525061 16.368071,7.15020576 C17.7501908,6.42402329 19.3114742,6.06055285 21.0519213,6.05979207 Z M70.1228604,6.05751919 C72.1878876,6.05751919 73.8295577,6.66671613 75.0478707,7.88511 C76.2661836,9.10426229 76.8753401,10.9318531 76.8753401,13.3678824 L76.8753401,22.3557692 C76.8753401,22.7540515 76.5529807,23.0769231 76.1553303,23.0769231 L72.8040015,23.0769231 C72.406351,23.0769231 72.0839916,22.7540515 72.0839916,22.3557692 L72.0839916,14.1050619 C72.0839916,12.795279 71.8126867,11.8174923 71.2700767,11.1717019 C70.7274667,10.5259114 69.9545034,10.203585 68.9511869,10.2047226 C67.8250152,10.2047226 66.9339366,10.5683827 66.2779511,11.2957028 C65.6219656,12.0230228 65.294352,13.1037644 65.2951104,14.5379274 L65.2951104,22.3557692 C65.2951104,22.7540515 64.972751,23.0769231 64.5751005,23.0769231 L61.2249093,23.0769231 C60.8272589,23.0769231 60.5048995,22.7540515 60.5048995,22.3557692 L60.5048995,14.1050619 C60.5048995,11.5052149 59.4606312,10.2049122 57.3720947,10.2041538 C56.2663989,10.2041538 55.3859374,10.5678139 54.7307103,11.2951339 C54.0754831,12.022454 53.7478695,13.1031956 53.7478695,14.5373585 L53.7478695,22.3557692 C53.7478695,22.7540515 53.4255101,23.0769231 53.0278597,23.0769231 L49.678806,23.0769231 C49.2811555,23.0769231 48.9587961,22.7540515 48.9587961,22.3557692 L48.9587961,7.02496834 C48.9587961,6.62668607 49.2811555,6.3038145 49.678806,6.3038145 L52.8151383,6.3038145 C53.2127888,6.3038145 53.5351482,6.62668607 53.5351482,7.02496834 L53.5351482,8.20762603 C54.1543442,7.50817804 54.9269857,6.96151106 55.7926105,6.61040381 C56.6833099,6.24257248 57.6610316,6.05827761 58.7257758,6.05751919 C59.8928991,6.05751919 60.9474053,6.28788778 61.8892943,6.74862496 C62.8183019,7.19715359 63.6055527,7.89332634 64.1643886,8.76051064 C64.8448626,7.89701415 65.7249863,7.21184242 66.7289886,6.76398287 C67.7630189,6.2937655 68.8943095,6.05827761 70.1228604,6.05751919 Z M94.7217482,6.05979444 C96.3385818,6.05979444 97.802605,6.40790697 99.1138176,7.10413204 C100.408368,7.78604758 101.479775,8.82554056 102.200552,10.0989237 C102.900854,11.318313 103.273057,12.7218439 103.317159,14.3095163 L103.321081,14.6452863 L103.321081,14.6452863 L103.279176,15.2489632 L103.279176,15.2489632 C103.251562,15.6257423 102.938296,15.9172948 102.561102,15.9172948 L90.7289578,15.9172948 C90.9538129,16.9411552 91.486185,17.7500049 92.326074,18.343844 C93.1659629,18.937683 94.2102312,19.2346025 95.4588787,19.2346025 C96.3188644,19.2346025 97.0815897,19.10662 97.7470548,18.8506549 C98.1037447,18.7094431 98.5530453,18.4371623 99.0949566,18.0338126 C99.3903152,17.8139459 99.8036667,17.8525582 100.053355,18.1233222 L101.692389,19.9007067 C101.957424,20.1881363 101.945294,20.6348108 101.665039,20.9073734 L101.499899,21.0616668 L101.499899,21.0616668 C99.9847555,22.4040334 97.9301302,23.0752166 95.3360236,23.0752166 C93.4719631,23.0752166 91.8236573,22.7119358 90.3911063,21.9853741 C88.9585553,21.2588125 87.8528595,20.2501204 87.0740189,18.9592978 C86.2955575,17.6699922 85.9065163,16.2058718 85.9068939,14.5669367 C85.9068939,12.9499957 86.2908177,11.4900466 87.058662,10.1870895 C87.8127993,8.90228955 88.9076991,7.85121832 90.2221805,7.15020576 C91.5629694,6.42402329 93.0628253,6.06055285 94.7217482,6.05979444 Z M38.7305412,6.05804889 C41.2873679,6.05770879 43.2514563,6.66706803 44.6236041,7.88511 C45.9970026,9.10426229 46.6837019,10.9420917 46.6837019,13.3985983 L46.6837019,22.3529252 C46.6837019,22.7512074 46.3613425,23.074079 45.963692,23.074079 L42.919501,23.074079 C42.5218505,23.074079 42.1994911,22.7512074 42.1994911,22.3529252 L42.1994911,20.7703931 C41.2985538,22.3061837 39.6195343,23.074079 37.1624325,23.074079 C35.8929299,23.074079 34.793301,22.8592579 33.8635458,22.4296158 C32.9337906,21.9999736 32.2209278,21.405945 31.7249572,20.6475299 C31.2320201,19.8891148 30.9855516,19.029072 30.9855516,18.0674017 C30.9855516,16.5316111 31.5639943,15.3234558 32.7208797,14.4429359 C33.8777651,13.5624159 35.6646621,13.1223455 38.0815705,13.1227248 L41.8923534,13.1227248 C41.8923534,12.0783871 41.5749778,11.2746567 40.9402265,10.7115335 C40.3054752,10.1484103 39.3533482,9.86684869 38.0838456,9.86684869 C37.2022637,9.86702159 36.3262843,10.0069803 35.4885319,10.2815121 C35.0681975,10.4182565 34.5623773,10.6592818 33.9710712,11.0045879 C33.6275463,11.2052058 33.1866916,11.0889057 32.9863987,10.7448311 L31.8995596,8.63141964 C31.7255461,8.29268017 31.8445922,7.87680419 32.1713735,7.68187906 C32.9293316,7.22975691 33.8206234,6.86254949 34.845249,6.58025681 C36.1108342,6.23157778 37.4178104,6.05592505 38.7305412,6.05804889 Z M41.2158735,15.9172948 L38.6059798,15.9172948 C36.6402983,15.9172948 35.6574576,16.5619477 35.6574576,17.8512534 C35.6574576,18.4655696 35.8980488,18.9519033 36.3792313,19.3102544 C36.8604137,19.6686056 37.5207598,19.8477857 38.3602696,19.8477857 C39.1777868,19.8485396 39.9046794,19.6595046 40.5409474,19.2806762 C41.1756987,18.9014687 41.6261674,18.3434648 41.8923534,17.6066645 L41.8923534,16.5948495 C41.8923534,16.2206464 41.5894831,15.9172948 41.2158735,15.9172948 Z M21.0519213,9.99141785 C19.8233704,9.99179758 18.8098159,10.4066506 18.0112578,11.2359776 C17.2126998,12.0653045 16.8134207,13.1760034 16.8134207,14.5680744 C16.8134207,15.9601453 17.2126998,17.0710338 18.0112578,17.9007399 C18.8098159,18.7300669 19.8233704,19.1447303 21.0519213,19.1447303 C22.2804722,19.1447303 23.2889077,18.7300669 24.0772279,17.9007399 C24.865548,17.071413 25.2597081,15.9605245 25.2597081,14.5680744 C25.2597081,13.1756242 24.865548,12.0649253 24.0772279,11.2359776 C23.2889077,10.4058922 22.2804722,9.99103916 21.0519213,9.99141785 Z M94.752462,9.68255311 C93.6668628,9.68217461 92.7556876,9.98914312 92.0189362,10.6034594 C91.2818057,11.2177756 90.831337,12.0573411 90.6675302,13.1221559 L98.8066799,13.1221559 C98.6421148,12.0778183 98.1916461,11.2435617 97.4552739,10.6193861 C96.7189018,9.99521044 95.8179644,9.68293302 94.752462,9.68255311 Z" id="Shape"></path></g><g id="Roamler-Brandmark" transform="translate(-4.328804, 0.000000)"><mask id="mask-2" fill="white"><use xlink:href="#path-1"></use></mask><use id="Path" fill="#F47835" fill-rule="evenodd" xlink:href="#path-1"></use><polygon id="Path" fill="#FF764B" fill-rule="evenodd" mask="url(#mask-2)" points="14.9235219 19.169604 4.83804008 24.9982741 4.83804008 13.340934"></polygon><polygon id="Path" fill="#FFA488" fill-rule="evenodd" mask="url(#mask-2)" points="25.0082275 1.68385273 25.0082275 13.3409338 14.923522 7.51252278"></polygon><polygon id="Path" fill="#FF8560" fill-rule="evenodd" mask="url(#mask-2)" points="14.9235219 7.51252305 14.9227455 7.51252305 4.83804008 13.340934 14.9235219 19.1696041 25.0082274 13.340934"></polygon><polygon id="Path" fill="#FF6738" fill-rule="evenodd" mask="url(#mask-2)" points="14.9235219 19.1696039 14.9235219 30.826944 4.83804008 24.998274"></polygon><polygon id="Path" fill="#F85D32" fill-rule="evenodd" mask="url(#mask-2)" points="35.0929329 30.8269439 25.0082274 36.6556139 25.0082274 24.9982738"></polygon><polygon id="Path" fill="#F1522D" fill-rule="evenodd" mask="url(#mask-2)" points="35.0929329 30.8269441 25.0082274 36.6556142 35.0929329 42.4842842 35.0937092 42.4842842 45.1784147 36.6556142"></polygon><polygon id="Path" fill="#E64324" fill-rule="evenodd" mask="url(#mask-2)" points="35.0929329 42.4842841 25.0082274 48.3129542 25.0082274 36.6556141"></polygon><polygon id="Path" fill="#F85D32" fill-rule="evenodd" mask="url(#mask-2)" points="14.9235219 30.8269439 4.83804008 36.6556139 4.83804008 24.9982738"></polygon><polygon id="Path" fill="#F1522D" fill-rule="evenodd" mask="url(#mask-2)" points="14.9235219 30.8269441 4.83804008 36.6556142 14.9227455 42.4842842 14.9235219 42.4842842 25.0082274 36.6556142"></polygon><polygon id="Path" fill="#FFFFFF" fill-rule="evenodd" mask="url(#mask-2)" points="25.0082275 13.340934 14.923522 19.169604 14.923522 30.8269441 25.0082275 36.6556142 25.0082275 24.9982741 35.0929329 19.169604"></polygon><polygon id="Path" fill="#EA4827" fill-rule="evenodd" mask="url(#mask-2)" points="25.0082275 36.6556141 25.0082275 48.3129542 14.923522 42.4842841"></polygon><polygon id="Path" fill="#FF9473" fill-rule="evenodd" mask="url(#mask-2)" points="35.0929329 7.51252278 25.0082274 13.3409338 25.0082274 1.68385273"></polygon><polygon id="Path" fill="#FF6738" fill-rule="evenodd" mask="url(#mask-2)" points="35.0929329 19.1696039 25.0082274 24.998274 35.0929329 30.826944 45.1784147 24.998274"></polygon><polygon id="Path" fill="#FF8560" fill-rule="evenodd" mask="url(#mask-2)" points="35.0937092 7.51252305 35.0929329 7.51252305 25.0082274 13.340934 35.0929329 19.1696041 45.1784147 13.340934"></polygon><polygon id="Path" fill="#FF764B" fill-rule="evenodd" mask="url(#mask-2)" points="45.1784146 13.340934 45.1784146 24.9982741 35.0929328 19.169604"></polygon><polygon id="Path" fill="#F85D32" fill-rule="evenodd" mask="url(#mask-2)" points="45.1784146 24.9982738 45.1784146 36.6556139 35.0929328 30.8269439"></polygon><polygon id="Path" fill="#F7F7F7" fill-rule="evenodd" mask="url(#mask-2)" points="25.0082274 24.9982741 25.0082274 13.340934 35.0929329 19.169604"></polygon></g></g></g></g></svg>